<svg width="1946" height="1413" viewBox="0 0 1946 1413" fill="none" xmlns="http://www.w3.org/2000/svg">
<style>
path {
  fill: black;
}
@media (prefers-color-scheme: dark) {
  path {
    fill: white;
  }
}
</style>
<path d="M91.3813 144.111C53.6543 165.194 18.8633 194.599 0 232.326V0H1516.63V215.682C1466.7 145.776 1400.68 110.823 1318.57 110.823C1233.13 110.823 1161 140.228 1102.19 199.037C1043.38 257.847 1013.98 333.856 1013.98 427.063C1013.98 505.508 1033.55 572.44 1072.7 627.857H875.325V360.486C875.325 280.594 854.242 219.01 812.077 175.735C769.911 132.46 713.321 110.823 642.306 110.823C550.208 110.823 473.644 151.324 412.615 232.326C378.217 151.324 311.64 110.823 212.884 110.823C169.609 110.823 129.108 121.919 91.3813 144.111Z" fill="black"/>
<path d="M1333.35 627.857C1281.29 627.825 1238.07 614.542 1200.39 576.861C1162.67 539.135 1143.8 490.866 1143.8 432.057C1143.8 373.247 1162.11 324.424 1198.73 285.587C1236.46 245.641 1281.4 225.668 1333.55 225.668C1385.7 225.668 1429.53 245.641 1465.04 285.587C1501.65 325.534 1519.96 374.357 1519.96 432.057C1519.96 490.866 1502.21 539.135 1466.7 576.861C1431.24 614.542 1385.81 627.825 1333.74 627.857H1333.35Z" fill="black"/>
<path d="M6.49609 403.761V627.857H304.428V400.433C304.428 341.623 293.886 298.348 272.804 270.608C251.721 242.867 218.987 228.997 174.603 228.997C126.889 228.997 86.9429 244.532 54.7642 275.601C22.5854 305.56 6.49609 348.281 6.49609 403.761Z" fill="black"/>
<path d="M435.917 395.439V627.857H745.5V400.433C745.5 286.142 697.786 228.997 602.359 228.997C555.755 228.997 516.364 243.977 484.186 273.936C453.116 302.786 437.027 343.287 435.917 395.439Z" fill="black"/>
<path d="M623 1412.86V785H1501.75V1412.86H1323.74V1411.79H957.563L1305.43 1025.65V907.474H821.08V1018.99H1135.66L797.778 1411.79V1412.86H623Z" fill="black"/>
<path d="M1945.99 785H1631.57V1168.79L1945.99 863.482L1945.99 785Z" fill="black"/>
<path d="M1945.99 1020.16L1816.32 1150.48L1945.99 1342.42V1020.16Z" fill="black"/>
<path d="M1631.57 1412.86H1833.87L1726.45 1253.67L1631.57 1348.55V1412.86Z" fill="black"/>
</svg>
