<svg width="2972" height="628" viewBox="0 0 2972 628" fill="none" xmlns="http://www.w3.org/2000/svg">
<path fill-rule="evenodd" clip-rule="evenodd" d="M2656.7 0H2971.11L2971.11 78.4822L2656.7 383.788V0ZM2841.45 365.48L2971.11 235.159V557.416L2841.45 365.48ZM0 232.326C18.8635 194.599 53.6545 165.194 91.3815 144.111C129.108 121.919 169.609 110.823 212.884 110.823C311.64 110.823 378.217 151.324 412.615 232.326C473.644 151.324 550.207 110.823 642.305 110.823C713.321 110.823 769.911 132.46 812.077 175.735C854.242 219.01 875.325 280.594 875.325 360.486V627.857H1072.7C1033.55 572.44 1013.98 505.508 1013.98 427.063C1013.98 333.856 1043.38 257.847 1102.19 199.037C1161 140.228 1233.13 110.823 1318.57 110.823C1400.68 110.823 1466.7 145.776 1516.63 215.682V0H0V120.809V232.326ZM1648.12 627.857V0H2526.87V627.857H2348.86V626.794H1982.69L2330.55 240.648V122.474H1846.2V233.99H2160.78L1822.9 626.794V627.857H1648.12ZM1333.35 627.857L1333.55 627.857L1333.74 627.857C1385.81 627.825 1431.24 614.542 1466.7 576.861C1502.21 539.135 1519.96 490.866 1519.96 432.057C1519.96 374.357 1501.65 325.534 1465.04 285.587C1429.53 245.641 1385.7 225.668 1333.55 225.668C1281.4 225.668 1236.46 245.641 1198.73 285.587C1162.11 324.424 1143.8 373.247 1143.8 432.057C1143.8 490.866 1162.67 539.135 1200.39 576.861C1238.07 614.542 1281.29 627.825 1333.35 627.857ZM2858.99 627.857H2656.7V563.546L2751.57 468.674L2858.99 627.857ZM6.49585 627.857V403.761C6.49585 348.281 22.5853 305.56 54.7641 275.601C86.943 244.532 126.889 228.997 174.603 228.997C218.987 228.997 251.721 242.867 272.804 270.608C293.886 298.348 304.428 341.623 304.428 400.433V627.857H6.49585ZM435.917 627.857V395.439C437.027 343.287 453.116 302.786 484.185 273.936C516.364 243.977 555.756 228.997 602.359 228.997C697.786 228.997 745.5 286.142 745.5 400.433V627.857H435.917Z" fill="black"/>
</svg>
